<svg width="30" height="30" viewBox="0 0 30 30" fill="none" xmlns="http://www.w3.org/2000/svg">
<path d="M6.67478 6.05404L0.369438 19.5655C0.157834 20.0189 0.313952 20.559 0.734862 20.8295L14.4592 29.6524C14.7886 29.8641 15.2113 29.8641 15.5408 29.6524L29.2651 20.8295C29.686 20.559 29.8422 20.0189 29.6306 19.5655L23.3252 6.05404C22.9806 5.31555 21.9447 5.27728 21.5465 5.98832L15.8725 16.1205C15.4907 16.8024 14.5093 16.8024 14.1275 16.1205L8.45347 5.98832C8.05528 5.27728 7.0194 5.31555 6.67478 6.05404Z" fill="#2D6F95"/>
<path d="M10.4682 1.48564L14.0793 7.98556C14.4698 8.68852 15.4883 8.66639 15.8479 7.94713L19.0978 1.44721C19.4303 0.782313 18.9468 0 18.2034 0H11.3424C10.5799 0 10.0979 0.819111 10.4682 1.48564Z" fill="#2D6F95"/>
</svg>
