<svg width="161" height="30" viewBox="0 0 161 30" fill="none" xmlns="http://www.w3.org/2000/svg">
<path d="M40.8718 23.3654C40.1026 23.3654 39.547 23.2479 39.2051 23.0128C38.8632 22.7778 38.6603 22.4786 38.5962 22.1154C38.5321 21.7521 38.5 21.3568 38.5 20.9295V9.71154C38.5 9.28419 38.5321 8.89957 38.5962 8.55769C38.6816 8.19444 38.8953 7.90598 39.2372 7.69231C39.5791 7.45726 40.1453 7.33974 40.9359 7.33974C41.7265 7.33974 42.3034 7.5 42.6667 7.82051C43.0299 8.11966 43.2115 8.62179 43.2115 9.32692L42.7949 9.67949C42.8376 9.57265 42.9658 9.39102 43.1795 9.13461C43.3932 8.8782 43.6709 8.61111 44.0128 8.33333C44.3547 8.05556 44.75 7.82051 45.1987 7.6282C45.6688 7.41453 46.1709 7.30769 46.7051 7.30769C47.4103 7.30769 48.0406 7.41453 48.5962 7.6282C49.1731 7.82051 49.6859 8.11966 50.1346 8.52564C50.6047 8.91026 51.0107 9.40171 51.3526 10C51.6517 9.57265 52.015 9.15598 52.4423 8.75C52.8697 8.34402 53.3718 8.00214 53.9487 7.72436C54.547 7.44658 55.2094 7.30769 55.9359 7.30769C57.1752 7.30769 58.2222 7.62821 59.0769 8.26923C59.953 8.88889 60.6154 9.78632 61.0641 10.9615C61.5128 12.1368 61.7372 13.5577 61.7372 15.2244V20.9615C61.7372 21.3675 61.6944 21.7628 61.609 22.1474C61.5449 22.5107 61.3419 22.8098 61 23.0449C60.6581 23.2585 60.0919 23.3654 59.3013 23.3654C58.5107 23.3654 57.9444 23.2479 57.6026 23.0128C57.2821 22.7778 57.0791 22.4786 56.9936 22.1154C56.9295 21.7308 56.8974 21.3355 56.8974 20.9295V15.1923C56.8974 14.5299 56.8226 13.9744 56.6731 13.5256C56.5235 13.0769 56.2885 12.735 55.9679 12.5C55.6688 12.2436 55.2842 12.1154 54.8141 12.1154C54.3226 12.1154 53.906 12.2329 53.5641 12.4679C53.2222 12.6816 52.9658 13.0235 52.7949 13.4936C52.6239 13.9423 52.5385 14.5192 52.5385 15.2244V20.9615C52.5385 21.3889 52.485 21.7949 52.3782 22.1795C52.2714 22.5427 52.0363 22.8419 51.6731 23.0769C51.3312 23.2906 50.7756 23.3868 50.0064 23.3654C49.2372 23.344 48.6923 23.2158 48.3718 22.9808C48.0513 22.7457 47.859 22.4466 47.7949 22.0833C47.7308 21.6987 47.6987 21.3141 47.6987 20.9295V15.1923C47.6987 14.5299 47.6239 13.9744 47.4744 13.5256C47.3248 13.0556 47.1004 12.703 46.8013 12.4679C46.5021 12.2329 46.1068 12.1154 45.6154 12.1154C45.0812 12.1154 44.6432 12.2543 44.3013 12.5321C43.9594 12.8098 43.703 13.1838 43.5321 13.6538C43.3825 14.1026 43.3077 14.6154 43.3077 15.1923V20.9615C43.3077 21.3889 43.265 21.7842 43.1795 22.1474C43.1154 22.5107 42.9124 22.8098 42.5705 23.0449C42.2286 23.2585 41.6624 23.3654 40.8718 23.3654Z" fill="white"/>
<path d="M70.9827 23.4936C70.4699 23.4936 70.0319 23.3974 69.6686 23.2051C69.3054 23.0128 69.0169 22.7137 68.8032 22.3077L63.034 10.8013C62.6494 10.0321 62.5319 9.40171 62.6814 8.91026C62.8524 8.39744 63.3438 7.93803 64.1558 7.53205C64.9678 7.14744 65.6088 7.01923 66.0789 7.14744C66.5703 7.25427 67.0084 7.74573 67.393 8.62179L70.9827 16.9872L74.5725 8.75C74.9785 7.8312 75.4165 7.29701 75.8866 7.14744C76.3567 6.99786 77.0191 7.13675 77.8737 7.5641C78.7498 7.97009 79.2306 8.45085 79.3161 9.00641C79.4229 9.5406 79.2947 10.1603 78.9314 10.8654L73.1943 22.3077C73.002 22.7137 72.7242 23.0128 72.3609 23.2051C71.9977 23.3974 71.5383 23.4936 70.9827 23.4936Z" fill="white"/>
<path d="M89.7793 23.0769C88.7323 23.0769 87.8028 22.8739 86.9908 22.4679C86.2002 22.0406 85.5378 21.4744 85.0037 20.7692C84.4908 20.0427 84.0955 19.2094 83.8178 18.2692C83.5613 17.3291 83.4438 16.3141 83.4652 15.2244C83.4652 14.1774 83.6041 13.1838 83.8819 12.2436C84.1596 11.2821 84.5549 10.438 85.0678 9.71154C85.6019 8.96367 86.2537 8.38675 87.0229 7.98077C87.8135 7.55342 88.7323 7.33974 89.7793 7.33974C90.7195 7.33974 91.6276 7.55342 92.5037 7.98077C93.4011 8.40812 94.1917 8.99573 94.8755 9.74359C95.5592 10.4701 96.0934 11.3141 96.478 12.2756C96.884 13.2372 97.087 14.2521 97.087 15.3205C97.087 16.3889 96.884 17.4038 96.478 18.3654C96.0934 19.3056 95.5592 20.1282 94.8755 20.8333C94.1917 21.5385 93.4118 22.094 92.5357 22.5C91.6596 22.8846 90.7408 23.0769 89.7793 23.0769ZM83.5934 30C82.8242 30 82.2686 29.8825 81.9267 29.6474C81.6062 29.4338 81.4032 29.1453 81.3178 28.7821C81.2537 28.4402 81.2216 28.0662 81.2216 27.6603V9.74359C81.2216 9.31624 81.2537 8.93162 81.3178 8.58974C81.3819 8.2265 81.5742 7.92735 81.8947 7.69231C82.2366 7.45726 82.7921 7.33974 83.5613 7.33974C84.2237 7.33974 84.7472 7.4359 85.1319 7.6282C85.5378 7.82051 85.8263 8.11966 85.9972 8.52564V27.6282C86.0186 28.0342 85.9866 28.4188 85.9011 28.7821C85.8156 29.1453 85.6019 29.4338 85.2601 29.6474C84.9396 29.8825 84.384 30 83.5934 30ZM89.1062 18.5577C89.7045 18.5577 90.2387 18.4188 90.7088 18.141C91.1789 17.8419 91.5528 17.4466 91.8306 16.9551C92.1297 16.4637 92.2793 15.9188 92.2793 15.3205C92.2793 14.7009 92.1404 14.156 91.8626 13.6859C91.5849 13.1944 91.2109 12.8098 90.7408 12.5321C90.2707 12.2543 89.7366 12.1154 89.1383 12.1154C88.5613 12.1154 88.0272 12.265 87.5357 12.5641C87.0656 12.8419 86.6917 13.2265 86.4139 13.7179C86.1575 14.188 86.0293 14.7222 86.0293 15.3205C86.0293 15.9188 86.1682 16.4637 86.446 16.9551C86.7237 17.4466 87.0977 17.8419 87.5678 18.141C88.0378 18.4188 88.5507 18.5577 89.1062 18.5577Z" fill="white"/>
<path d="M112.143 23.3333C111.353 23.3333 110.765 23.1944 110.381 22.9167C110.017 22.6389 109.836 22.297 109.836 21.891L110.156 21.3462C110.028 21.5598 109.782 21.8269 109.419 22.1474C109.056 22.4466 108.586 22.7244 108.009 22.9808C107.432 23.2158 106.716 23.3333 105.861 23.3333C104.878 23.3333 103.938 23.1197 103.041 22.6923C102.165 22.265 101.385 21.6773 100.701 20.9295C100.017 20.1603 99.4724 19.2949 99.0664 18.3333C98.6818 17.3718 98.4895 16.3568 98.4895 15.2885C98.4895 14.2415 98.6818 13.2479 99.0664 12.3077C99.4724 11.3462 100.017 10.5021 100.701 9.77564C101.406 9.02778 102.197 8.44017 103.073 8.01282C103.949 7.58547 104.878 7.3718 105.861 7.3718C106.652 7.3718 107.325 7.48932 107.881 7.72436C108.436 7.93803 108.895 8.19444 109.259 8.49359C109.643 8.79274 109.932 9.0812 110.124 9.35897L109.868 8.91026C109.846 8.39744 110.017 8.01282 110.381 7.75641C110.765 7.47863 111.363 7.33974 112.175 7.33974C112.945 7.33974 113.489 7.45726 113.81 7.69231C114.152 7.92735 114.355 8.23718 114.419 8.62179C114.504 9.00641 114.547 9.41239 114.547 9.83974V20.8974C114.547 21.3034 114.504 21.6987 114.419 22.0833C114.355 22.4679 114.152 22.7778 113.81 23.0128C113.489 23.2265 112.934 23.3333 112.143 23.3333ZM106.566 18.5577C107.122 18.5577 107.624 18.4188 108.073 18.141C108.543 17.8419 108.906 17.4466 109.163 16.9551C109.44 16.4637 109.579 15.9188 109.579 15.3205C109.579 14.7009 109.44 14.156 109.163 13.6859C108.885 13.1944 108.511 12.8098 108.041 12.5321C107.571 12.2329 107.058 12.0833 106.502 12.0833C105.883 12.0833 105.327 12.2329 104.836 12.5321C104.366 12.8312 103.981 13.2265 103.682 13.7179C103.404 14.2094 103.265 14.765 103.265 15.3846C103.265 15.9615 103.404 16.4957 103.682 16.9872C103.981 17.4573 104.376 17.8419 104.868 18.141C105.381 18.4188 105.947 18.5577 106.566 18.5577Z" fill="white"/>
<path d="M119.53 23.3333C118.74 23.3333 118.174 23.2265 117.832 23.0128C117.511 22.7778 117.308 22.4786 117.223 22.1154C117.159 21.7308 117.127 21.3355 117.127 20.9295V9.64744C117.127 9.24145 117.169 8.86752 117.255 8.52564C117.34 8.16239 117.543 7.87393 117.864 7.66026C118.206 7.44658 118.772 7.33974 119.562 7.33974C120.246 7.33974 120.748 7.4359 121.069 7.6282C121.389 7.79914 121.592 8.01282 121.678 8.26923C121.785 8.52564 121.838 8.77137 121.838 9.00641C121.838 9.22009 121.859 9.36966 121.902 9.45513L121.71 10.0641C121.753 9.74359 121.913 9.42308 122.191 9.10256C122.49 8.76068 122.853 8.46154 123.28 8.20513C123.729 7.92735 124.199 7.71368 124.691 7.5641C125.203 7.41453 125.706 7.33974 126.197 7.33974C127.223 7.33974 128.131 7.53205 128.921 7.91667C129.733 8.27991 130.417 8.8141 130.973 9.51923C131.528 10.2244 131.945 11.0577 132.223 12.0192C132.522 12.9594 132.671 13.9957 132.671 15.1282V20.9615C132.671 21.3675 132.629 21.7628 132.543 22.1474C132.479 22.5107 132.276 22.7991 131.934 23.0128C131.614 23.2265 131.058 23.3333 130.268 23.3333C129.456 23.3333 128.879 23.2265 128.537 23.0128C128.216 22.7778 128.013 22.4786 127.928 22.1154C127.842 21.7308 127.8 21.3355 127.8 20.9295V15.1282C127.8 14.4872 127.693 13.9423 127.479 13.4936C127.265 13.0449 126.945 12.703 126.518 12.4679C126.09 12.2115 125.567 12.0833 124.947 12.0833C124.327 12.0833 123.793 12.2115 123.345 12.4679C122.896 12.7244 122.543 13.0769 122.287 13.5256C122.052 13.9744 121.934 14.5085 121.934 15.1282V20.9615C121.934 21.3675 121.892 21.7628 121.806 22.1474C121.742 22.5107 121.539 22.7991 121.197 23.0128C120.877 23.2265 120.321 23.3333 119.53 23.3333Z" fill="white"/>
<path d="M143.135 23.6538C141.64 23.6538 140.347 23.4081 139.257 22.9167C138.189 22.4252 137.313 21.7842 136.629 20.9936C135.945 20.1816 135.432 19.2842 135.091 18.3013C134.77 17.3184 134.61 16.3355 134.61 15.3526C134.61 13.75 134.973 12.3291 135.7 11.0897C136.426 9.85043 137.43 8.87821 138.712 8.17308C139.994 7.44658 141.469 7.08333 143.135 7.08333C144.375 7.08333 145.443 7.28632 146.341 7.69231C147.259 8.07692 148.007 8.58974 148.584 9.23077C149.182 9.85043 149.62 10.5235 149.898 11.25C150.197 11.9765 150.347 12.6709 150.347 13.3333C150.347 14.5085 150.058 15.3846 149.482 15.9615C148.926 16.5171 148.21 16.7949 147.334 16.7949H139.706C139.749 17.3504 139.941 17.8205 140.283 18.2051C140.646 18.5897 141.095 18.8889 141.629 19.1026C142.163 19.3162 142.729 19.4231 143.328 19.4231C143.841 19.4231 144.289 19.4017 144.674 19.359C145.058 19.2949 145.39 19.2201 145.667 19.1346C145.945 19.0278 146.202 18.9316 146.437 18.8462C146.672 18.7393 146.875 18.6538 147.046 18.5897C147.238 18.5256 147.42 18.4829 147.591 18.4615C147.911 18.4402 148.2 18.5363 148.456 18.75C148.734 18.9423 148.979 19.2415 149.193 19.6474C149.343 19.8825 149.439 20.1068 149.482 20.3205C149.546 20.5342 149.578 20.7479 149.578 20.9615C149.578 21.4744 149.311 21.9338 148.776 22.3397C148.264 22.7457 147.526 23.0662 146.565 23.3013C145.625 23.5363 144.482 23.6538 143.135 23.6538ZM139.706 14.1667H144.77C145.112 14.1667 145.358 14.1132 145.507 14.0064C145.678 13.8782 145.764 13.6432 145.764 13.3013C145.764 12.9167 145.646 12.5855 145.411 12.3077C145.176 12.0085 144.855 11.7842 144.45 11.6346C144.065 11.4637 143.616 11.3782 143.103 11.3782C142.441 11.3782 141.853 11.5064 141.341 11.7628C140.828 12.0192 140.422 12.3611 140.123 12.7885C139.845 13.2158 139.706 13.6752 139.706 14.1667Z" fill="white"/>
<path d="M158.556 23.3654C157.68 23.3654 156.9 23.312 156.216 23.2051C155.553 23.1197 154.977 22.9487 154.485 22.6923C154.015 22.4359 153.63 22.0833 153.331 21.6346C153.032 21.1859 152.808 20.609 152.658 19.9038C152.53 19.1774 152.466 18.2906 152.466 17.2436V2.4359C152.466 2.00855 152.498 1.61325 152.562 1.25C152.647 0.886752 152.861 0.587607 153.203 0.352563C153.545 0.117521 154.1 0 154.87 0C155.639 0 156.184 0.117521 156.504 0.352563C156.846 0.587607 157.06 0.886752 157.145 1.25C157.231 1.61325 157.274 2.00855 157.274 2.4359V17.0192C157.274 17.3611 157.284 17.6496 157.306 17.8846C157.348 18.0983 157.412 18.2692 157.498 18.3974C157.605 18.5256 157.744 18.6111 157.915 18.6538C158.086 18.6966 158.31 18.7179 158.588 18.7179C158.844 18.7179 159.1 18.75 159.357 18.8141C159.635 18.8782 159.87 19.0705 160.062 19.391C160.254 19.7115 160.35 20.2457 160.35 20.9936C160.35 21.7628 160.254 22.3184 160.062 22.6603C159.87 23.0021 159.635 23.2051 159.357 23.2692C159.1 23.3333 158.833 23.3654 158.556 23.3654Z" fill="white"/>
<path d="M6.67478 6.05404L0.369438 19.5655C0.157834 20.0189 0.313952 20.559 0.734862 20.8295L14.4592 29.6524C14.7886 29.8641 15.2113 29.8641 15.5408 29.6524L29.2651 20.8295C29.686 20.559 29.8422 20.0189 29.6306 19.5655L23.3252 6.05404C22.9806 5.31555 21.9447 5.27728 21.5465 5.98832L15.8725 16.1205C15.4907 16.8024 14.5093 16.8024 14.1275 16.1205L8.45347 5.98832C8.05528 5.27728 7.0194 5.31555 6.67478 6.05404Z" fill="#2D6F95"/>
<path d="M10.4682 1.48564L14.0793 7.98556C14.4698 8.68852 15.4883 8.66639 15.8479 7.94713L19.0978 1.44721C19.4303 0.782313 18.9468 0 18.2034 0H11.3424C10.5799 0 10.0979 0.819111 10.4682 1.48564Z" fill="#2D6F95"/>
</svg>
